<?xml version="1.0" encoding="UTF-8"?>
<svg id="Layer_2" data-name="Layer 2" xmlns="http://www.w3.org/2000/svg" viewBox="0 0 43.93 50.71">
  <defs>
    <style>
      .cls-1 {
        fill: #e28425;
      }

      .cls-1, .cls-2, .cls-3, .cls-4 {
        stroke-width: 0px;
      }

      .cls-2 {
        fill: #6b140f;
      }

      .cls-3 {
        fill: #fdfcf4;
      }

      .cls-4 {
        fill: #fddf00;
      }
    </style>
  </defs>
  <g id="Layer_1-2" data-name="Layer 1">
    <g>
      <path class="cls-2" d="m23.66,16.9h-6.76v16.91h10.14v-16.91h-3.38Zm0,6.76v6.76h-3.38v-10.14h3.38v3.38Z"/>
      <g>
        <rect class="cls-1" x="37.18" y="40.57" width="3.38" height="3.38"/>
        <polygon class="cls-1" points="30.42 43.95 27.04 43.95 23.66 43.95 20.28 43.95 16.9 43.95 13.52 43.95 10.14 43.95 6.76 43.95 6.76 47.33 10.14 47.33 13.52 47.33 16.9 47.33 20.28 47.33 23.66 47.33 27.04 47.33 30.42 47.33 33.8 47.33 37.18 47.33 37.18 43.95 33.8 43.95 30.42 43.95"/>
        <rect class="cls-1" x="3.38" y="40.57" width="3.38" height="3.38"/>
      </g>
      <polygon class="cls-3" points="10.14 3.38 6.76 3.38 6.76 6.76 6.76 10.14 10.14 10.14 13.52 10.14 13.52 6.76 13.52 3.38 10.14 3.38"/>
      <path class="cls-4" d="m37.18,6.76v-3.38H13.52v6.76h-6.76v-3.38h-3.38v33.81h3.38v3.38h30.42v-3.38h3.38V6.76h-3.38Zm-16.9,10.14h6.76v16.91h-10.14v-16.91h3.38Z"/>
      <path class="cls-2" d="m40.56,3.38V0H3.38v3.38H0v43.95h3.38v3.38h37.18v-3.38h3.38V3.38h-3.38Zm0,6.76v33.81h-3.38v3.38H6.76v-3.38h-3.38V6.76h3.38v-3.38h30.42v3.38h3.38v3.38Z"/>
    </g>
  </g>
</svg>