<?xml version="1.0" encoding="UTF-8"?>
<svg id="Layer_2" data-name="Layer 2" xmlns="http://www.w3.org/2000/svg" viewBox="0 0 20.28 50.71">
  <defs>
    <style>
      .cls-1 {
        fill: #e28425;
      }

      .cls-1, .cls-2, .cls-3, .cls-4 {
        stroke-width: 0px;
      }

      .cls-2 {
        fill: #6b140f;
      }

      .cls-3 {
        fill: #fdfcf4;
      }

      .cls-4 {
        fill: #fddf00;
      }
    </style>
  </defs>
  <g id="Layer_1-2" data-name="Layer 1">
    <g>
      <polygon class="cls-1" points="13.52 43.95 10.14 43.95 6.76 43.95 3.38 43.95 3.38 47.33 6.76 47.33 10.14 47.33 13.52 47.33 16.9 47.33 16.9 43.95 13.52 43.95"/>
      <polygon class="cls-3" points="6.76 3.38 3.38 3.38 3.38 6.76 3.38 10.14 6.76 10.14 10.14 10.14 10.14 6.76 10.14 3.38 6.76 3.38"/>
      <polygon class="cls-4" points="13.52 3.38 10.14 3.38 10.14 6.76 10.14 10.14 6.76 10.14 3.38 10.14 3.38 13.52 3.38 16.9 3.38 20.29 3.38 23.67 3.38 27.05 3.38 30.43 3.38 33.81 3.38 37.19 3.38 40.57 3.38 43.95 6.76 43.95 10.14 43.95 13.52 43.95 16.9 43.95 16.9 40.57 16.9 37.19 16.9 33.81 16.9 30.43 16.9 27.05 16.9 23.67 16.9 20.29 16.9 16.9 16.9 13.52 16.9 10.14 16.9 6.76 16.9 3.38 13.52 3.38"/>
      <path class="cls-2" d="m16.9,0H0v50.71h20.28V0h-3.38Zm0,6.76v40.57H3.38V3.38h13.52v3.38Z"/>
    </g>
  </g>
</svg>