<?xml version="1.0" encoding="UTF-8"?>
<svg id="Layer_2" data-name="Layer 2" xmlns="http://www.w3.org/2000/svg" viewBox="0 0 43.93 50.71">
  <defs>
    <style>
      .cls-1 {
        fill: #e28425;
      }

      .cls-1, .cls-2, .cls-3, .cls-4 {
        stroke-width: 0px;
      }

      .cls-2 {
        fill: #6b140f;
      }

      .cls-3 {
        fill: #fdfcf4;
      }

      .cls-4 {
        fill: #fddf00;
      }
    </style>
  </defs>
  <g id="Layer_1-2" data-name="Layer 1">
    <g>
      <polygon class="cls-3" points="6.76 3.38 3.38 3.38 3.38 6.76 3.38 10.14 6.76 10.14 10.14 10.14 10.14 6.76 10.14 3.38 6.76 3.38"/>
      <g>
        <polygon class="cls-1" points="23.66 27.05 20.28 27.05 16.9 27.05 16.9 30.43 20.28 30.43 23.66 30.43 27.04 30.43 30.42 30.43 33.8 30.43 37.18 30.43 37.18 27.05 33.8 27.05 30.42 27.05 27.04 27.05 23.66 27.05"/>
        <polygon class="cls-1" points="33.8 43.95 30.42 43.95 27.04 43.95 23.66 43.95 20.28 43.95 16.9 43.95 13.52 43.95 10.14 43.95 6.76 43.95 3.38 43.95 3.38 47.33 6.76 47.33 10.14 47.33 13.52 47.33 16.9 47.33 20.28 47.33 23.66 47.33 27.04 47.33 30.42 47.33 33.8 47.33 37.18 47.33 40.56 47.33 40.56 43.95 37.18 43.95 33.8 43.95"/>
        <rect class="cls-1" x="37.18" y="20.29" width="3.38" height="3.38"/>
        <rect class="cls-1" x="3.38" y="10.14" width="3.38" height="3.38"/>
        <polygon class="cls-1" points="10.14 16.9 13.52 16.9 16.9 16.9 20.28 16.9 23.66 16.9 27.04 16.9 27.04 13.52 23.66 13.52 20.28 13.52 16.9 13.52 13.52 13.52 10.14 13.52 6.76 13.52 6.76 16.9 10.14 16.9"/>
      </g>
      <polygon class="cls-4" points="37.18 6.76 37.18 3.38 33.8 3.38 30.42 3.38 27.04 3.38 23.66 3.38 20.28 3.38 16.9 3.38 13.52 3.38 10.14 3.38 10.14 6.76 10.14 10.14 6.76 10.14 6.76 13.52 10.14 13.52 13.52 13.52 16.9 13.52 20.28 13.52 23.66 13.52 27.04 13.52 27.04 16.9 27.04 20.29 23.66 20.29 20.28 20.29 16.9 20.29 13.52 20.29 10.14 20.29 6.76 20.29 6.76 23.67 3.38 23.67 3.38 27.05 3.38 30.43 3.38 33.81 3.38 37.19 3.38 40.57 3.38 43.95 6.76 43.95 10.14 43.95 13.52 43.95 16.9 43.95 20.28 43.95 23.66 43.95 27.04 43.95 30.42 43.95 33.8 43.95 37.18 43.95 40.56 43.95 40.56 40.57 40.56 37.19 40.56 33.81 37.18 33.81 33.8 33.81 30.42 33.81 27.04 33.81 23.66 33.81 20.28 33.81 16.9 33.81 16.9 30.43 16.9 27.05 20.28 27.05 23.66 27.05 27.04 27.05 30.42 27.05 33.8 27.05 37.18 27.05 37.18 23.67 37.18 20.29 40.56 20.29 40.56 16.9 40.56 13.52 40.56 10.14 40.56 6.76 37.18 6.76"/>
      <path class="cls-2" d="m40.56,3.38V0H0v16.9h3.38v3.38H0v30.43h43.93v-20.29h-3.38v-3.38h3.38V3.38h-3.38Zm0,6.76v13.52h-3.38v6.76h-20.28v3.38h23.66v13.52H3.38v-23.67h3.38v-3.38h20.28v-3.38H6.76v-3.38h-3.38V3.38h33.8v3.38h3.38v3.38Z"/>
    </g>
  </g>
</svg>