<?xml version="1.0" encoding="UTF-8"?>
<svg id="Layer_2" data-name="Layer 2" xmlns="http://www.w3.org/2000/svg" viewBox="0 0 43.93 50.71">
  <defs>
    <style>
      .cls-1 {
        fill: #e28425;
      }

      .cls-1, .cls-2, .cls-3, .cls-4 {
        stroke-width: 0px;
      }

      .cls-2 {
        fill: #6b140f;
      }

      .cls-3 {
        fill: #fdfcf4;
      }

      .cls-4 {
        fill: #fddf00;
      }
    </style>
  </defs>
  <g id="Layer_1-2" data-name="Layer 1">
    <g>
      <g>
        <polygon class="cls-1" points="27.04 30.43 23.66 30.43 20.28 30.43 16.9 30.43 13.52 30.43 10.14 30.43 6.76 30.43 6.76 33.81 10.14 33.81 13.52 33.81 16.9 33.81 20.28 33.81 23.66 33.81 27.04 33.81 27.04 30.43"/>
        <polygon class="cls-1" points="37.18 43.95 33.8 43.95 30.42 43.95 27.04 43.95 27.04 47.33 30.42 47.33 33.8 47.33 37.18 47.33 40.56 47.33 40.56 43.95 37.18 43.95"/>
        <rect class="cls-1" x="3.38" y="27.05" width="3.38" height="3.38"/>
      </g>
      <g>
        <polygon class="cls-3" points="30.42 3.38 27.04 3.38 27.04 6.76 27.04 10.14 30.42 10.14 33.8 10.14 33.8 6.76 33.8 3.38 30.42 3.38"/>
        <polygon class="cls-3" points="3.38 3.38 3.38 6.76 3.38 10.14 6.76 10.14 10.14 10.14 10.14 6.76 10.14 3.38 6.76 3.38 3.38 3.38"/>
      </g>
      <polygon class="cls-4" points="37.18 3.38 33.8 3.38 33.8 6.76 33.8 10.14 30.42 10.14 27.04 10.14 27.04 13.52 27.04 16.9 27.04 20.29 23.66 20.29 20.28 20.29 16.9 20.29 16.9 16.9 16.9 13.52 16.9 10.14 16.9 6.76 16.9 3.38 13.52 3.38 10.14 3.38 10.14 6.76 10.14 10.14 6.76 10.14 3.38 10.14 3.38 13.52 3.38 16.9 3.38 20.29 3.38 23.67 3.38 27.05 6.76 27.05 6.76 30.43 10.14 30.43 13.52 30.43 16.9 30.43 20.28 30.43 23.66 30.43 27.04 30.43 27.04 33.81 27.04 37.19 27.04 40.57 27.04 43.95 30.42 43.95 33.8 43.95 37.18 43.95 40.56 43.95 40.56 40.57 40.56 37.19 40.56 33.81 40.56 30.43 40.56 27.05 40.56 23.67 40.56 20.29 40.56 16.9 40.56 13.52 40.56 10.14 40.56 6.76 40.56 3.38 37.18 3.38"/>
      <path class="cls-2" d="m40.56,0h-16.9v16.9h-3.38V0H0v33.81h3.38v3.38h20.28v13.52h20.28V0h-3.38Zm0,6.76v40.57h-13.52v-13.52H6.76v-3.38h-3.38V3.38h13.52v16.91h10.14V3.38h13.52v3.38Z"/>
    </g>
  </g>
</svg>