<?xml version="1.0" encoding="UTF-8"?>
<svg id="Layer_2" data-name="Layer 2" xmlns="http://www.w3.org/2000/svg" viewBox="0 0 43.93 50.71">
  <defs>
    <style>
      .cls-1 {
        fill: #e28425;
      }

      .cls-1, .cls-2, .cls-3, .cls-4 {
        stroke-width: 0px;
      }

      .cls-2 {
        fill: #6b140f;
      }

      .cls-3 {
        fill: #fdfcf4;
      }

      .cls-4 {
        fill: #fddf00;
      }
    </style>
  </defs>
  <g id="Layer_1-2" data-name="Layer 1">
    <g>
      <polygon class="cls-3" points="6.76 3.38 3.38 3.38 3.38 6.76 3.38 10.14 6.76 10.14 10.14 10.14 10.14 6.76 10.14 3.38 6.76 3.38"/>
      <polygon class="cls-4" points="37.18 3.38 33.8 3.38 30.42 3.38 27.04 3.38 23.66 3.38 20.28 3.38 16.9 3.38 13.52 3.38 10.14 3.38 10.14 6.76 10.14 10.14 6.76 10.14 3.38 10.14 3.38 13.52 6.76 13.52 10.14 13.52 13.52 13.52 16.9 13.52 20.28 13.52 20.28 16.9 20.28 20.29 16.9 20.29 16.9 23.67 13.52 23.67 13.52 27.05 10.14 27.05 10.14 30.43 6.76 30.43 6.76 33.81 3.38 33.81 3.38 37.19 3.38 40.57 3.38 43.95 6.76 43.95 10.14 43.95 13.52 43.95 16.9 43.95 16.9 40.57 16.9 37.19 20.28 37.19 20.28 33.81 23.66 33.81 23.66 30.43 27.04 30.43 27.04 27.05 30.42 27.05 30.42 23.67 33.8 23.67 33.8 20.29 37.18 20.29 37.18 16.9 40.56 16.9 40.56 13.52 40.56 10.14 40.56 6.76 40.56 3.38 37.18 3.38"/>
      <g>
        <rect class="cls-1" x="23.66" y="30.43" width="3.38" height="3.38"/>
        <rect class="cls-1" x="20.28" y="33.81" width="3.38" height="3.38"/>
        <rect class="cls-1" x="30.42" y="23.67" width="3.38" height="3.38"/>
        <rect class="cls-1" x="27.04" y="27.05" width="3.38" height="3.38"/>
        <rect class="cls-1" x="16.9" y="37.19" width="3.38" height="3.38"/>
        <polygon class="cls-1" points="10.14 43.95 6.76 43.95 3.38 43.95 3.38 47.33 6.76 47.33 10.14 47.33 13.52 47.33 16.9 47.33 16.9 43.95 13.52 43.95 10.14 43.95"/>
        <rect class="cls-1" x="37.18" y="16.9" width="3.38" height="3.38"/>
        <rect class="cls-1" x="33.8" y="20.29" width="3.38" height="3.38"/>
        <polygon class="cls-1" points="10.14 16.9 13.52 16.9 16.9 16.9 20.28 16.9 20.28 13.52 16.9 13.52 13.52 13.52 10.14 13.52 6.76 13.52 3.38 13.52 3.38 16.9 6.76 16.9 10.14 16.9"/>
      </g>
      <path class="cls-2" d="m40.56,0H0v20.29h10.14v3.38h-3.38v3.38h-3.38v3.38H0v20.29h20.28v-6.76h3.38v-3.38h3.38v-3.38h3.38v-3.38h3.38v-3.38h3.38v-3.38h3.38v-3.38h3.38V0h-3.38Zm0,6.76v13.52h-3.38v3.38h-3.38v3.38h-3.38v3.38h-3.38v3.38h-3.38v3.38h-3.38v3.38h-3.38v6.76H3.38v-13.52h3.38v-3.38h3.38v-3.38h3.38v-3.38h3.38v-3.38h3.38v-3.38H3.38V3.38h37.18v3.38Z"/>
    </g>
  </g>
</svg>