<?xml version="1.0" encoding="UTF-8"?>
<svg id="Layer_2" data-name="Layer 2" xmlns="http://www.w3.org/2000/svg" viewBox="0 0 43.93 50.71">
  <defs>
    <style>
      .cls-1 {
        fill: #e28425;
      }

      .cls-1, .cls-2, .cls-3, .cls-4 {
        stroke-width: 0px;
      }

      .cls-2 {
        fill: #6b140f;
      }

      .cls-3 {
        fill: #fdfcf4;
      }

      .cls-4 {
        fill: #fddf00;
      }
    </style>
  </defs>
  <g id="Layer_1-2" data-name="Layer 1">
    <g>
      <polygon class="cls-3" points="10.14 3.38 6.76 3.38 6.76 6.76 6.76 10.14 10.14 10.14 13.52 10.14 13.52 6.76 13.52 3.38 10.14 3.38"/>
      <g>
        <polygon class="cls-1" points="23.66 30.43 27.04 30.43 27.04 27.05 23.66 27.05 20.28 27.05 16.9 27.05 16.9 30.43 20.28 30.43 23.66 30.43"/>
        <rect class="cls-1" x="37.18" y="40.57" width="3.38" height="3.38"/>
        <polygon class="cls-1" points="30.42 43.95 27.04 43.95 23.66 43.95 20.28 43.95 16.9 43.95 13.52 43.95 10.14 43.95 6.76 43.95 6.76 47.33 10.14 47.33 13.52 47.33 16.9 47.33 20.28 47.33 23.66 47.33 27.04 47.33 30.42 47.33 33.8 47.33 37.18 47.33 37.18 43.95 33.8 43.95 30.42 43.95"/>
        <rect class="cls-1" x="3.38" y="40.57" width="3.38" height="3.38"/>
        <polygon class="cls-1" points="23.66 13.52 27.04 13.52 27.04 10.14 23.66 10.14 20.28 10.14 16.9 10.14 16.9 13.52 20.28 13.52 23.66 13.52"/>
        <rect class="cls-1" x="37.18" y="20.29" width="3.38" height="3.38"/>
        <rect class="cls-1" x="3.38" y="20.29" width="3.38" height="3.38"/>
      </g>
      <path class="cls-4" d="m37.18,6.76v-3.38H13.52v6.76h-6.76v-3.38h-3.38v13.52h3.38v6.76h-3.38v13.52h3.38v3.38h30.42v-3.38h3.38v-13.52h-3.38v-6.76h3.38V6.76h-3.38Zm-10.14,23.67v3.38h-10.14v-6.76h10.14v3.38Zm-6.76-20.29h6.76v13.52h-10.14v-13.52h3.38Z"/>
      <g>
        <polygon class="cls-2" points="20.28 30.43 16.9 30.43 16.9 33.81 20.28 33.81 23.66 33.81 27.04 33.81 27.04 30.43 23.66 30.43 20.28 30.43"/>
        <path class="cls-2" d="m20.28,13.52h-3.38v10.14h10.14v-10.14h-6.76Zm3.38,6.76h-3.38v-3.38h3.38v3.38Z"/>
        <path class="cls-2" d="m40.56,3.38V0H3.38v3.38H0v43.95h3.38v3.38h37.18v-3.38h3.38V3.38h-3.38Zm0,6.76v13.52h-3.38v3.38h3.38v16.91h-3.38v3.38H6.76v-3.38h-3.38v-16.91h3.38v-3.38h-3.38V6.76h3.38v-3.38h30.42v3.38h3.38v3.38Z"/>
      </g>
    </g>
  </g>
</svg>