<?xml version="1.0" encoding="UTF-8"?>
<svg id="Layer_2" data-name="Layer 2" xmlns="http://www.w3.org/2000/svg" viewBox="0 0 43.93 50.71">
  <defs>
    <style>
      .cls-1 {
        fill: #e28425;
      }

      .cls-1, .cls-2, .cls-3, .cls-4 {
        stroke-width: 0px;
      }

      .cls-2 {
        fill: #6b140f;
      }

      .cls-3 {
        fill: #fdfcf4;
      }

      .cls-4 {
        fill: #fddf00;
      }
    </style>
  </defs>
  <g id="Layer_1-2" data-name="Layer 1">
    <g>
      <g>
        <polygon class="cls-1" points="27.04 30.43 23.66 30.43 20.28 30.43 16.9 30.43 13.52 30.43 10.14 30.43 6.76 30.43 6.76 33.81 10.14 33.81 13.52 33.81 16.9 33.81 20.28 33.81 23.66 33.81 27.04 33.81 27.04 30.43"/>
        <polygon class="cls-1" points="37.18 43.95 33.8 43.95 30.42 43.95 27.04 43.95 27.04 47.33 30.42 47.33 33.8 47.33 37.18 47.33 40.56 47.33 40.56 43.95 37.18 43.95"/>
        <rect class="cls-1" x="3.38" y="27.05" width="3.38" height="3.38"/>
        <polygon class="cls-1" points="23.66 10.14 27.04 10.14 27.04 6.76 23.66 6.76 20.28 6.76 16.9 6.76 16.9 10.14 20.28 10.14 23.66 10.14"/>
      </g>
      <polygon class="cls-3" points="10.14 3.38 6.76 3.38 6.76 6.76 6.76 10.14 10.14 10.14 13.52 10.14 13.52 6.76 13.52 3.38 10.14 3.38"/>
      <path class="cls-4" d="m37.18,6.76v-3.38H13.52v6.76h-6.76v-3.38h-3.38v20.29h3.38v3.38h20.28v13.52h13.52V6.76h-3.38Zm-20.28,0h10.14v13.52h-10.14V6.76Z"/>
      <g>
        <path class="cls-2" d="m20.28,10.14h-3.38v10.14h10.14v-10.14h-6.76Zm3.38,6.76h-3.38v-3.38h3.38v3.38Z"/>
        <path class="cls-2" d="m40.56,3.38V0H3.38v3.38H0v30.43h3.38v3.38h20.28v13.52h20.28V3.38h-3.38Zm0,6.76v37.19h-13.52v-13.52H6.76v-3.38h-3.38V6.76h3.38v-3.38h30.42v3.38h3.38v3.38Z"/>
      </g>
    </g>
  </g>
</svg>